<?xml version="1.0" standalone="no"?>
<!DOCTYPE svg PUBLIC "-//W3C//DTD SVG 20010904//EN"
 "http://www.w3.org/TR/2001/REC-SVG-20010904/DTD/svg10.dtd">
<svg version="1.0" xmlns="http://www.w3.org/2000/svg"
 width="223.000000pt" height="226.000000pt" viewBox="0 0 223.000000 226.000000"
 preserveAspectRatio="xMidYMid meet">
<metadata>
Created by potrace 1.16, written by Peter Selinger 2001-2019
</metadata>
<g transform="translate(0.000000,226.000000) scale(0.100000,-0.100000)"
fill="#000000" stroke="none">
<path d="M988 2250 c-312 -39 -591 -204 -776 -459 -34 -47 -62 -94 -45 -76 5
6 27 35 49 65 125 177 331 330 540 401 239 81 515 77 754 -12 202 -75 413
-245 529 -424 69 -109 73 -113 52 -70 -32 67 -121 185 -191 255 -152 153 -351
259 -566 304 -90 19 -261 27 -346 16z"/>
<path d="M947 2125 c-226 -43 -401 -138 -557 -301 -90 -95 -133 -156 -184
-266 -74 -157 -90 -236 -90 -428 0 -139 3 -178 22 -250 29 -109 72 -205 140
-308 51 -79 156 -202 171 -202 5 0 4 21 0 47 -18 108 -10 243 22 397 28 130
30 151 18 174 -22 41 -67 62 -131 62 -75 0 -86 6 -98 49 -7 27 -6 50 6 91 9
30 19 91 23 135 5 68 9 81 27 90 39 19 53 36 56 68 3 29 6 32 33 29 17 -2 61
3 98 9 54 10 73 10 88 1 16 -10 46 -6 162 22 78 19 207 51 287 70 80 19 282
69 449 112 248 63 305 81 309 96 5 21 23 23 40 6 7 -7 12 -9 12 -6 0 19 -208
170 -290 211 -182 90 -428 127 -613 92z"/>
<path d="M1926 1694 c3 -21 12 -67 21 -101 8 -35 13 -69 10 -76 -3 -7 -42 -22
-87 -32 -46 -10 -90 -27 -99 -36 -9 -10 -74 -31 -151 -49 -148 -36 -184 -50
-200 -79 -17 -32 -12 -109 10 -151 11 -22 20 -44 20 -49 0 -15 -74 -56 -155
-87 -48 -18 -102 -29 -172 -34 -158 -13 -185 -34 -202 -163 -21 -155 -8 -316
36 -426 19 -46 23 -69 16 -80 -11 -17 -115 -52 -235 -78 -43 -9 -78 -20 -78
-23 0 -4 37 -22 83 -40 547 -217 1162 79 1336 643 61 198 52 451 -22 652 -21
59 -81 175 -111 214 l-25 34 5 -39z"/>
<path d="M1255 1285 c-5 -1 -47 -11 -92 -21 -48 -10 -83 -22 -83 -29 0 -26 47
-80 87 -99 39 -19 58 -46 33 -46 -28 0 -99 46 -136 87 -47 52 -73 53 -100 2
-20 -40 -11 -79 27 -115 29 -28 34 -29 122 -28 109 1 193 28 245 80 38 38 41
73 12 122 -25 41 -72 60 -115 47z"/>
<path d="M139 585 c53 -109 180 -257 300 -349 311 -238 714 -296 1078 -156
157 60 335 184 434 304 61 72 120 157 143 206 18 38 14 33 -58 -79 -67 -104
-220 -253 -330 -320 -100 -62 -217 -112 -333 -142 -111 -29 -309 -36 -435 -15
-303 50 -584 232 -747 482 -70 109 -73 112 -52 69z"/>
</g>
</svg>
